<?xml version="1.0" encoding="utf-8"?>
<!-- Generator: Adobe Illustrator 27.5.0, SVG Export Plug-In . SVG Version: 6.00 Build 0)  -->
<svg version="1.1" xmlns="http://www.w3.org/2000/svg" xmlns:xlink="http://www.w3.org/1999/xlink" x="0px" y="0px"
	 viewBox="0 0 2200 2200" style="enable-background:new 0 0 2200 2200;" xml:space="preserve">
<g id="background">
	<rect style="fill:none;" width="2200" height="2200"/>
</g>
<g id="Objects">
	<g>
		<ellipse style="fill:#6961ff;" cx="1100" cy="1961.982" rx="353.659" ry="29.018"/>
		<g>
			<path style="fill:#6961ff;" d="M1793.752,784.229c0-63.426-28.749-120.131-73.92-157.816c3.875-12.824,5.967-26.423,5.967-40.512
				c0-77.241-62.616-139.857-139.857-139.857c-0.297,0-0.593,0.009-0.89,0.011c-2.067-50.101-43.319-90.088-93.928-90.088
				c-13.02,0-25.421,2.649-36.697,7.433c-42.001-48.132-103.792-78.546-172.693-78.546c-23.997,0-47.13,3.696-68.868,10.538
				C1170.882,242.746,1106.2,209,1033.627,209c-89.636,0-167.239,51.475-204.893,126.471c-1.233-0.025-2.467-0.047-3.707-0.047
				c-67.217,0-125.973,36.185-157.882,90.13c-11.94-4.111-24.74-6.374-38.076-6.374c-64.585,0-116.942,52.357-116.942,116.942
				c0,9.726,1.208,19.167,3.445,28.201c-64.385,28.439-109.325,92.845-109.325,167.756c0,63.375,32.162,119.236,81.052,152.159
				c-17.426,32.319-27.322,69.298-27.322,108.59c0,111.46,79.585,204.316,185.026,224.883c-0.08,1.938-0.131,3.883-0.131,5.84
				c0,76.804,62.262,139.066,139.066,139.066c31.332,0,60.242-10.365,83.494-27.848c33.622,39.288,83.563,64.195,139.329,64.195
				c66.22,0,124.233-35.115,156.45-87.737c26.05,11.694,54.932,18.204,85.336,18.204c65.675,0,124.25-30.36,162.487-77.8
				c17.959,11.234,39.171,17.749,61.916,17.749c58.657,0,107.219-43.189,115.642-99.501
				c63.15-20.704,108.761-80.114,108.761-150.186c0-19.509-3.544-38.188-10.009-55.44
				C1750.775,929.286,1793.752,861.781,1793.752,784.229z"/>
			<circle style="fill: #6961ff;" cx="1272.253" cy="1504.846" r="99.559"/>
			<circle style="fill:#6961ff;" cx="1411.319" cy="1683.42" r="66.373"/>
			<circle style="fill:#6961ff;" cx="1582.782" cy="1744.261" r="45.039"/>
		</g>
	</g>
</g>
</svg>
